<?xml version="1.0" standalone="no"?><!DOCTYPE svg PUBLIC "-//W3C//DTD SVG 1.1//EN"
        "http://www.w3.org/Graphics/SVG/1.1/DTD/svg11.dtd">
<svg t="1684230540346" class="icon" viewBox="0 0 1024 1024" version="1.1" xmlns="http://www.w3.org/2000/svg"
     xmlns:xlink="http://www.w3.org/1999/xlink">
    <path d="M944.156 36.99H79.74c-22.65 0-41.042 18.442-41.042 41.094v684.664c0 22.598 18.39 41.042 41.042 41.042h864.416c22.65 0 41.042-18.442 41.042-41.042V78.084c0-22.652-18.39-41.094-41.042-41.094zM721.546 706.538H59.738V66.966h904.42v639.572H721.546z"
          fill="#DFDFDF"/>
    <path d="M665.902 961.26h-298.26a7.792 7.792 0 0 1-7.194-10.79l50.224-120.484a7.794 7.794 0 0 1 7.194-4.794h197.812c3.146 0 5.982 1.89 7.194 4.794l50.224 120.484a7.792 7.792 0 0 1-7.194 10.79z m-286.57-15.586h274.878l-43.728-104.9H423.06l-43.728 104.9z"
          fill="#4A555F"/>
    <path d="M411.434 924.278l25.886-62.102h158.9l25.89 62.102z" fill="#DFDFDF"/>
    <path d="M799.422 1024H234.12a7.792 7.792 0 0 1-7.792-7.792v-62.74a7.792 7.792 0 0 1 7.792-7.792h565.302a7.792 7.792 0 0 1 7.792 7.792v62.74a7.788 7.788 0 0 1-7.792 7.792z m-557.508-15.586h549.716V961.26H241.914v47.154z"
          fill="#4A555F"/>
    <path d="M35.934 1008.414h961.674V1024H35.934z" fill="#4A555F"/>
    <path d="M517.526 756.144m-37.862 0a37.862 37.862 0 1 0 75.724 0 37.862 37.862 0 1 0-75.724 0Z" fill="#FFFFFF"
    />
    <path d="M517.526 801.8c-25.174 0-45.656-20.482-45.656-45.656s20.482-45.656 45.656-45.656 45.656 20.482 45.656 45.656S542.7 801.8 517.526 801.8z m0-75.726c-16.58 0-30.07 13.49-30.07 30.07s13.49 30.07 30.07 30.07 30.07-13.49 30.07-30.07-13.49-30.07-30.07-30.07z"
          fill="#4A555F"/>
    <path d="M944.208 840.78H79.792c-23.334 0-45.274-10.348-60.192-28.388a75.784 75.784 0 0 1-4.526-6.04 79.432 79.432 0 0 1-3.912-6.45 73.08 73.08 0 0 1-3.274-6.784 76.748 76.748 0 0 1-2.608-7.174 75.608 75.608 0 0 1-2.6-11.342 73.812 73.812 0 0 1-0.918-11.854V78.084C1.76 35.03 36.764 0 79.792 0h864.418c43.028 0 78.03 35.03 78.03 78.084v684.666c0 43.026-35.004 78.03-78.032 78.03zM79.792 15.586c-34.432 0-62.446 28.038-62.446 62.498v684.666c0 3.312 0.246 6.488 0.73 9.442a59.526 59.526 0 0 0 2.086 9.122c0.602 1.944 1.288 3.874 2.07 5.716a58.28 58.28 0 0 0 2.61 5.408c1.014 1.882 2.088 3.6 3.202 5.272a58.534 58.534 0 0 0 3.58 4.764c11.936 14.436 29.496 22.724 48.17 22.724h864.418c34.432 0 62.446-28.012 62.446-62.446V78.084c0-34.46-28.012-62.498-62.446-62.498H79.792z"
          fill="#4A555F"/>
    <path d="M935.014 685.134H88.986a7.792 7.792 0 0 1-7.792-7.792V96.164a7.792 7.792 0 0 1 7.792-7.792h846.026a7.792 7.792 0 0 1 7.792 7.792v581.18a7.788 7.788 0 0 1-7.79 7.79zM96.78 669.55h830.44V103.956H96.78v565.594z"
          fill="#4A555F"/>
    <path d="M375.802 423.368c-51.972 0-94.252-41.09-94.252-91.592s42.282-91.59 94.252-91.59 94.252 41.086 94.252 91.59-42.28 91.592-94.252 91.592z m0-167.596c-43.378 0-78.668 34.096-78.668 76.004 0 41.912 35.29 76.006 78.668 76.006s78.668-34.096 78.668-76.006c0-41.91-35.29-76.004-78.668-76.004z"
          fill="#4A555F"/>
    <path d="M375.8 391.628c-33.352 0-60.484-26.848-60.484-59.852 0-33.002 27.132-59.852 60.484-59.852 33.352 0 60.484 26.85 60.484 59.852 0 33.004-27.132 59.852-60.484 59.852z"
          fill="#F58E6F"/>
    <path d="M533.048 610.288H218.536a7.792 7.792 0 0 1-7.792-7.792v-61.704c0-54.16 32.5-103.714 80.872-123.31a132.106 132.106 0 0 1 49.838-9.7h68.732c14.74 0 29.246 2.418 43.114 7.186 52.362 17.992 87.544 68.628 87.544 125.998v61.532a7.796 7.796 0 0 1-7.796 7.79z m-306.72-15.586h298.928v-53.74c0-50.716-30.956-95.428-77.024-111.258a116.76 116.76 0 0 0-38.048-6.34h-68.732a116.636 116.636 0 0 0-43.988 8.558c-42.548 17.24-71.136 60.986-71.136 108.866v53.914z"
          fill="#4A555F"/>
    <path d="M410.182 441.548h-68.728c-14.048 0-27.648 3.66-40.138 10.04-33.672 17.198-53.776 52.972-53.776 90.782v33.872h256.514v-33.898c0-37.81-20.094-73.596-53.772-90.778-12.474-6.366-26.06-10.018-40.1-10.018z"
          fill="#F58E6F"/>
    <path d="M466.236 547.078h15.586v55.416h-15.586zM269.796 547.078h15.586v55.416h-15.586zM578.1 539.172a7.796 7.796 0 0 1-7.792-7.792v-54.008h-19.924v-15.586h27.716a7.792 7.792 0 0 1 7.792 7.792v45.792l66.25-51.926a7.786 7.786 0 0 1 4.808-1.658h100.998c24.306 0 44.08-19.774 44.08-44.08v-179.136c0-24.306-19.774-44.082-44.08-44.082H427.676c-18.338 0-34.95 11.544-41.336 28.728l-14.612-5.428c8.646-23.258 31.128-38.884 55.946-38.884h330.27c32.9 0 59.666 26.768 59.666 59.668v179.136c0 32.9-26.764 59.666-59.666 59.666h-98.31l-76.732 60.142a7.788 7.788 0 0 1-4.802 1.656z"
          fill="#4A555F"/>
    <path d="M783.844 417.706c0 14.278-11.618 25.896-25.898 25.896h-109.964l-7.058 5.532-36.85 28.882V443.6h-79.576c-15.844-19.352-36.424-34.702-60.438-43.94 15.118-18.698 24.176-42.272 24.176-67.886 0-50.62-35.288-93.326-83.1-105.958 4.546-7.998 13.154-13.148 22.54-13.148h330.27c14.28 0 25.898 11.618 25.898 25.9v179.138z"
          fill="#FFD452"/>
    <path d="M550.384 350.1c-22.802 0-41.352-18.55-41.352-41.352v-41.08c0-22.802 18.55-41.352 41.352-41.352s41.352 18.55 41.352 41.352v41.08c0 22.802-18.55 41.352-41.352 41.352z m0-108.2c-14.208 0-25.768 11.56-25.768 25.768v41.08c0 14.208 11.56 25.768 25.768 25.768s25.768-11.56 25.768-25.768v-41.08c0-14.208-11.56-25.768-25.768-25.768z"
          fill="#4A555F"/>
    <path d="M549.22 316.414l11.88-10.088 33.778 39.774-11.88 10.09zM603.644 422.174l49.048-189.158 15.088 3.912-49.048 189.158zM739.032 412.072l-21.702-97.248c-0.45-2.01-2.196-3.41-4.254-3.41s-3.806 1.4-4.254 3.406l-21.702 97.252-15.21-3.394 21.702-97.248c2.048-9.186 10.05-15.6 19.464-15.6s17.416 6.416 19.464 15.604l21.702 97.246-15.21 3.392z"
          fill="#4A555F"/>
    <path d="M691.426 349.204h43.828v15.586h-43.828z" fill="#4A555F"/>
</svg>
